<?xml version="1.0" encoding="utf-8"?>
<!-- Generator: Adobe Illustrator 19.2.1, SVG Export Plug-In . SVG Version: 6.00 Build 0)  -->
<svg version="1.1" id="layer" xmlns="http://www.w3.org/2000/svg" xmlns:xlink="http://www.w3.org/1999/xlink" x="0px" y="0px"
	 viewBox="0 0 652 652" style="enable-background:new 0 0 652 652;" xml:space="preserve">
<style type="text/css">
	.st0{fill:#00B4DC;}
</style>
<path class="st0" d="M175.5,217.7c-17,10.3-31.7,31.2-46,64.7c-30.2,70.8-67.9,88.5-103,88.7v-35.6c32.7-1,47.2-17.7,74.5-74.7
	c18.2-38.1,39.3-70.8,74.5-81.4c8.4-2.5,17.5-4.7,27.3-4.4v34C193.2,209.2,184.1,212.3,175.5,217.7 M580.1,315.1c0-10,0-24.5,0-24.5
	s-17.2,0.1-22.3,0.1c-15.3,0-30.3,10.5-30.3,24.8c0,14.3,9.9,24.2,28.1,24.2C564.8,339.7,580.1,332.8,580.1,315.1 M488.8,312.8
	c4.7-33.3,34.8-42.6,66.2-43.5h8h16.7c0.2-12.2-10-27.6-26.2-27.9c-17.4-0.3-27.8,14.9-28.9,26.5h-33.4h-35.6
	c-1.1-2.7-8.7-26.2-29.4-26.1c-20.4,0.1-33.8,26.4-33.8,49.4c0,28.1,13.8,48.3,33.6,48.3c14.2,0,25.9-10.3,29-26.6H488.8 M359,312.3
	c-0.6-7.1-0.9-13.7-0.9-20.9h-42.1h-50.8c0,18.7,5.5,46.6,30.3,48.2c19.3,0,27.4-15.7,28.8-27.3H359z M295.3,241
	c-15.4,0-27.1,15.2-28.8,26.7h49.4h7.4C322.3,261.1,314.1,241,295.3,241 M617.4,332.9c-0.2,5.7,2.3,8.2,8.9,7.1l0,29.9
	c-14.9,0.6-30.5,2.6-40-16c-8,10.6-24.4,16.5-38.8,16.1c-33.9-1-51.8-19.9-58.3-45.7c-3.6,17.8-23.3,45.6-60.2,45.8
	c-40.7,0.2-62-26.5-69.4-54.1c-5.2,29.2-33.3,54.4-63.1,54.4c-45.5,0-69.4-43.6-67.7-79.7H203v36c0,10.9,9.3,13.6,17.5,5.7
	c0,0,3.5,6.2,6.8,11.9c3.7,6.5,9.7,13.6,9.7,13.6s-16.3,12.6-34.5,12c-23.7-0.7-33.3-15.1-33.5-45.9v-33.4h-14.7l8.6-23.1h6v-29.1
	c7.5-8,19.5-16.5,33.9-16.8v45.9h27.4c7.8-29.2,32.1-55.3,64.9-56.2c36.2,0,59.7,31.1,63.8,57.8c8.8-34.1,35.3-57.7,67.9-57.7
	c30.1,0,53.9,21.5,63.4,55.1c6.9-30.4,30-55,64.8-55.1c34.4-0.1,62.9,31,62.2,68.2L617.4,332.9 M45.2,455.2
	c3.2-7.2,6.6-14.7,11.2-25c4.4,10.1,7.5,17.7,10.6,25H45.2z M85.8,470.4h-5.1l-20.6-46.6H43.8v5.9h6.1l-5.6,12l-12.9,28.7h-5.1v6
	h18.6v-6h-6.4c1.4-3.3,2.9-6.5,4.1-9.3h27c1.3,2.9,2.6,6.1,4.1,9.3h-6.5v6h18.7V470.4z M126.8,476.4v-5.9h-7.1v-12.6l6.3-5.9
	l13.9,18.9v5.6h15.9v-5.9h-8.2l-16.9-22.7l18.6-18h5.2v-6h-19.4v6h5.9l-21.4,20.1v-20.1h5.6v-6h-18.6v6h6.5v40.7h-6.5v5.9H126.8z
	 M176.7,455.2c3.2-7.2,6.6-14.7,11.2-25c4.4,10.1,7.5,17.7,10.6,25H176.7z M217.4,470.4h-5.1l-20.6-46.6h-16.2v5.9h6.1l-5.6,12
	L163,470.4h-5.1v6h18.6v-6H170c1.4-3.3,2.9-6.5,4.1-9.3h27c1.3,2.9,2.6,6.1,4.1,9.3h-6.5v6h18.7V470.4z M234.4,429.6v40.8h-6.8v6
	h20.1v-6h-6.8v-40.8h12.4l0.3,8.1h5.8v-14h-43.5v14h5.8l0.2-8.1H234.4z M309.7,476.4v-14.2h-5.9l-0.2,8h-25v-17.6h24v-6.1h-24v-16.8
	h23.9l0.2,8h5.9v-14h-42.9v5.9h6.4v40.7h-6.5v6H309.7z M337.5,476.4v-5.9h-7.1v-12.6l6.3-5.9l13.9,18.9v5.6h15.9v-5.9h-8.2
	l-16.9-22.7l18.6-18h5.2v-6h-19.4v6h5.9l-21.4,20.1v-20.1h5.6v-6h-18.7v6h6.5v40.7h-6.5v5.9H337.5z M402.4,452.3h15.6
	c5.6,0,12.4,2.7,12.4,9.3c0,7.4-7.2,8.7-12.7,8.7h-15.3V452.3z M402.4,429.7h15.3c6.4,0,11.2,2.2,11.2,8.9c0,5-4.7,7.8-10.9,7.8
	h-15.6V429.7z M396,429.7v40.7h-6.5v6h28.4c9.8,0,19.3-2.6,19.3-14.5c0-4.9-3.1-10.8-9.5-12.5c5.1-2,7.8-6.1,7.8-10.9
	c0-10.6-7.9-14.7-17.6-14.7h-28.2v5.9H396z M443.9,439.2v5.5h6.1V471h-6.2v5.4h18.4V471h-6v-15.3c0-7.1,3.9-11,11-11.1
	c2.5,0,4.4,0.8,6.5,2l2.8-5.3c-2.6-1.7-5.4-2.8-8.8-2.8c-4.6,0-9.2,1.7-11.6,5.7l-0.7-5H443.9z M512.1,458.4
	c-0.2,6.9-5.1,13.2-13.8,13.2c-7.4,0-13.3-5.3-13.3-13.6c0-8.2,5.9-13.5,13.2-13.5C507.6,444.5,512.3,451.1,512.1,458.4
	 M517.9,470.9v-26.1h6v-5.6h-12l-0.1,6.6c-2.7-4.8-8.2-7.2-13.8-7.2c-10.7,0-19.2,7.2-19.2,19.2c0,12.2,8.3,19.5,19.1,19.5
	c5.1,0,10.8-1.8,13.7-6.9l0.7,6h11.7v-5.5H517.9z M548.2,476.4v-5.6h-6v-14.4c0-7.3,5-12,11.7-12c7.6,0,10.6,3.6,10.6,11.6v14.9
	h-5.4v5.6H577v-5.6h-6.3v-15c0-11-5.4-17.3-16.2-17.3c-5,0-8.9,1.7-12.4,6.5l-0.4-5.9h-11.7v5.5h6.2v26.2h-6.3v5.6H548.2z
	 M600.4,444.2c7.3,0,13.2,5.5,13.2,13.5c0,8-5.8,13.5-13.1,13.5c-7.2,0-13.2-4.9-13.2-13.4C587.4,448.9,593.3,444.2,600.4,444.2
	L600.4,444.2z M607.7,423.8v5.4h6.1V446c-2.6-5-8.6-7.4-13.9-7.4c-10.4,0-18.7,6.7-18.7,19.2c0,12.3,8.3,19.2,18.8,19.2
	c5.6,0,10.9-2.4,13.9-7.4l0.8,6.8h11.5v-5.6H620v-47.1H607.7z"/>
</svg>
